G04*
G04 #@! TF.GenerationSoftware,Altium Limited,Altium Designer,21.9.2 (33)*
G04*
G04 Layer_Physical_Order=3*
G04 Layer_Color=128*
%FSLAX44Y44*%
%MOMM*%
G71*
G04*
G04 #@! TF.SameCoordinates,BC968A4A-1985-48CF-B565-52BB1D58B011*
G04*
G04*
G04 #@! TF.FilePolarity,Negative*
G04*
G01*
G75*
%ADD10C,0.1270*%
%ADD11C,2.4000*%
%ADD25C,1.0160*%
%ADD26O,1.2000X3.0000*%
%ADD27C,1.3000*%
%ADD28C,0.5000*%
D10*
X-0Y12700D02*
G03*
X12700Y0I12700J0D01*
G01*
Y330200D02*
G03*
X0Y317500I0J-12700D01*
G01*
X1422400Y-0D02*
G03*
X1435100Y12700I0J12700D01*
G01*
X1435100Y317500D02*
G03*
X1422400Y330200I-12700J0D01*
G01*
X0Y12700D02*
Y317500D01*
X12700Y330200D02*
X1422400D01*
X12700Y0D02*
X1422400D01*
X1435100Y12700D02*
Y317500D01*
D11*
X242500Y235000D02*
D03*
X157500D02*
D03*
X377500D02*
D03*
X462500D02*
D03*
X682500D02*
D03*
X597500D02*
D03*
X817500D02*
D03*
X902500D02*
D03*
X1162500D02*
D03*
X1077500D02*
D03*
X1297500D02*
D03*
X1382500D02*
D03*
D25*
X-0Y12700D02*
G03*
X12700Y0I12700J-0D01*
G01*
X1422400Y-0D02*
G03*
X1435100Y12700I0J12700D01*
G01*
X1435100Y317500D02*
G03*
X1422400Y330200I-12700J0D01*
G01*
X12700Y330200D02*
G03*
X0Y317500I0J-12700D01*
G01*
X12700Y0D02*
X1422400Y-0D01*
X1435100Y12700D02*
X1435100Y317500D01*
X12700Y330200D02*
X1422400Y330200D01*
X-0Y12700D02*
X0Y317500D01*
D26*
X162500Y165000D02*
D03*
X237500D02*
D03*
X457500D02*
D03*
X382500D02*
D03*
X602500D02*
D03*
X677500D02*
D03*
X897500D02*
D03*
X822500D02*
D03*
X1082500D02*
D03*
X1157500D02*
D03*
X1377500D02*
D03*
X1302500D02*
D03*
D27*
X190500Y95250D02*
D03*
X215900D02*
D03*
X266700D02*
D03*
X292100D02*
D03*
X342900D02*
D03*
X368300D02*
D03*
X393700D02*
D03*
X419100D02*
D03*
X444500D02*
D03*
X469900D02*
D03*
X495300D02*
D03*
X520700D02*
D03*
X546100D02*
D03*
X368300Y69850D02*
D03*
X393700D02*
D03*
X444500D02*
D03*
X469900D02*
D03*
X495300D02*
D03*
X520700D02*
D03*
X546100D02*
D03*
X266700D02*
D03*
X292100D02*
D03*
X342900D02*
D03*
X419100D02*
D03*
X95250Y304800D02*
D03*
Y228600D02*
D03*
Y203200D02*
D03*
Y177800D02*
D03*
Y152400D02*
D03*
Y127000D02*
D03*
Y101600D02*
D03*
Y76200D02*
D03*
Y50800D02*
D03*
X69850Y304800D02*
D03*
Y127000D02*
D03*
Y101600D02*
D03*
Y50800D02*
D03*
Y228600D02*
D03*
Y203200D02*
D03*
Y177800D02*
D03*
Y152400D02*
D03*
Y76200D02*
D03*
X774700Y88900D02*
D03*
X800100D02*
D03*
X825500D02*
D03*
X850900D02*
D03*
X876300D02*
D03*
X901700D02*
D03*
X774700Y63500D02*
D03*
X800100D02*
D03*
X825500D02*
D03*
X850900D02*
D03*
X876300D02*
D03*
X901700D02*
D03*
D28*
X368300Y212090D02*
D03*
X396240Y198120D02*
D03*
X419100Y190500D02*
D03*
X242062Y120904D02*
D03*
M02*
