G04*
G04 #@! TF.GenerationSoftware,Altium Limited,Altium Designer,21.7.2 (23)*
G04*
G04 Layer_Physical_Order=1*
G04 Layer_Color=255*
%FSLAX44Y44*%
%MOMM*%
G71*
G04*
G04 #@! TF.SameCoordinates,8BDE5F45-7B48-4CA1-9D59-FC4D3A77770E*
G04*
G04*
G04 #@! TF.FilePolarity,Positive*
G04*
G01*
G75*
%ADD10C,0.1270*%
%ADD16C,0.3048*%
%ADD17R,1.6000X1.6000*%
%ADD18C,1.6000*%
%ADD19R,1.6000X3.5000*%
%ADD20R,3.5000X1.6000*%
%ADD21R,1.6000X1.6000*%
%ADD22C,0.6000*%
D10*
X-0Y12700D02*
G03*
X12700Y0I12700J0D01*
G01*
Y330200D02*
G03*
X0Y317500I0J-12700D01*
G01*
X1422400Y-0D02*
G03*
X1435100Y12700I0J12700D01*
G01*
X1435100Y317500D02*
G03*
X1422400Y330200I-12700J0D01*
G01*
X0Y12700D02*
Y317500D01*
X12700Y330200D02*
X1422400D01*
X12700Y0D02*
X1422400D01*
X1435100Y12700D02*
Y317500D01*
D16*
X381762Y129286D02*
X791464D01*
X224536D02*
X381762D01*
X381600Y129448D02*
X381762Y129286D01*
X381600Y129448D02*
Y158200D01*
X215900Y120650D02*
X224536Y129286D01*
X791464D02*
X800100Y120650D01*
X242062Y120904D02*
X750824D01*
X772041Y99686D01*
X615950Y133350D02*
X812800D01*
X825500Y120650D01*
X611386Y137914D02*
X615950Y133350D01*
X772041Y91559D02*
X774700Y88900D01*
X772041Y91559D02*
Y99686D01*
X876300Y88900D02*
X877316Y89916D01*
Y99568D01*
X885698Y107950D01*
X1091014D01*
X1092800Y109735D01*
Y158200D01*
X1320800Y157600D02*
X1321400Y158200D01*
X1320800Y101600D02*
Y157600D01*
X1308100Y88900D02*
X1320800Y101600D01*
X901700Y88900D02*
X1308100D01*
X850900D02*
Y139700D01*
X848376Y142224D02*
X850900Y139700D01*
X838800Y148700D02*
Y158200D01*
Y148700D02*
X845276Y142224D01*
X848376D01*
X825500Y88900D02*
Y120650D01*
X800100Y88900D02*
Y120650D01*
X611386Y137914D02*
Y157014D01*
X610200Y158200D02*
X611386Y157014D01*
X443230Y181864D02*
X443738Y181356D01*
X131318Y181864D02*
X443230D01*
X127508Y188976D02*
X418338D01*
X138176Y219456D02*
X393700D01*
X121920Y203200D02*
X138176Y219456D01*
X95250Y203200D02*
X121920D01*
X95250Y127000D02*
X96647Y125603D01*
X182880Y48260D02*
X446532D01*
X96647Y125603D02*
X105537D01*
X182880Y48260D01*
X446532D02*
X457454Y59182D01*
Y82804D01*
X469900Y95250D01*
X531240Y61340D02*
Y80390D01*
X131572Y31496D02*
X501396D01*
X531240Y61340D01*
X480314Y36830D02*
X509016Y65532D01*
Y83566D02*
X520700Y95250D01*
X509016Y65532D02*
Y83566D01*
X147320Y36830D02*
X480314D01*
X482854Y64516D02*
Y82804D01*
X460756Y42418D02*
X482854Y64516D01*
Y82804D02*
X495300Y95250D01*
X167640Y42418D02*
X460756D01*
X112268Y50800D02*
X131572Y31496D01*
X107950Y76200D02*
X147320Y36830D01*
X95250Y101600D02*
X108458D01*
X167640Y42418D01*
X95250Y76200D02*
X107950D01*
X95250Y50800D02*
X112268D01*
X531240Y80390D02*
X546100Y95250D01*
X153000Y132750D02*
X190500Y95250D01*
X153000Y132750D02*
Y158200D01*
X215900Y95250D02*
Y120650D01*
X104332Y154878D02*
X131318Y181864D01*
X95250Y152400D02*
X97728Y154878D01*
X104332D01*
X95250Y177800D02*
X116332D01*
X127508Y188976D01*
X95250Y228600D02*
X367284D01*
X379213Y155814D02*
X381600Y158200D01*
D17*
X190500Y95250D02*
D03*
X774700Y88900D02*
D03*
D18*
X215900Y95250D02*
D03*
X241300D02*
D03*
X266700D02*
D03*
X292100D02*
D03*
X317500D02*
D03*
X342900D02*
D03*
X368300D02*
D03*
X393700D02*
D03*
X419100D02*
D03*
X444500D02*
D03*
X469900D02*
D03*
X495300D02*
D03*
X520700D02*
D03*
X546100D02*
D03*
X190500Y69850D02*
D03*
X368300D02*
D03*
X393700D02*
D03*
X444500D02*
D03*
X469900D02*
D03*
X495300D02*
D03*
X520700D02*
D03*
X546100D02*
D03*
X215900D02*
D03*
X241300D02*
D03*
X266700D02*
D03*
X292100D02*
D03*
X317500D02*
D03*
X342900D02*
D03*
X419100D02*
D03*
X95250Y279400D02*
D03*
Y254000D02*
D03*
Y228600D02*
D03*
Y203200D02*
D03*
Y177800D02*
D03*
Y152400D02*
D03*
Y127000D02*
D03*
Y101600D02*
D03*
Y76200D02*
D03*
Y50800D02*
D03*
Y25400D02*
D03*
X69850Y304800D02*
D03*
Y127000D02*
D03*
Y101600D02*
D03*
Y50800D02*
D03*
Y25400D02*
D03*
Y279400D02*
D03*
Y254000D02*
D03*
Y228600D02*
D03*
Y203200D02*
D03*
Y177800D02*
D03*
Y152400D02*
D03*
Y76200D02*
D03*
X800100Y88900D02*
D03*
X825500D02*
D03*
X850900D02*
D03*
X876300D02*
D03*
X901700D02*
D03*
X774700Y63500D02*
D03*
X800100D02*
D03*
X825500D02*
D03*
X850900D02*
D03*
X876300D02*
D03*
X901700D02*
D03*
D19*
X153000Y158200D02*
D03*
X228000D02*
D03*
X456600D02*
D03*
X381600D02*
D03*
X610200D02*
D03*
X685200D02*
D03*
X913800D02*
D03*
X838800D02*
D03*
X1092800D02*
D03*
X1167800D02*
D03*
X1396400D02*
D03*
X1321400D02*
D03*
D20*
X190500Y203200D02*
D03*
X419100D02*
D03*
X647700D02*
D03*
X876300D02*
D03*
X1130300D02*
D03*
X1358900D02*
D03*
D21*
X95250Y304800D02*
D03*
D22*
X242062Y120904D02*
D03*
X443738Y181356D02*
D03*
X418338Y188976D02*
D03*
X393700Y219456D02*
D03*
X367284Y228600D02*
D03*
M02*
