G04*
G04 #@! TF.GenerationSoftware,Altium Limited,Altium Designer,21.7.2 (23)*
G04*
G04 Layer_Physical_Order=4*
G04 Layer_Color=16711680*
%FSLAX44Y44*%
%MOMM*%
G71*
G04*
G04 #@! TF.SameCoordinates,8BDE5F45-7B48-4CA1-9D59-FC4D3A77770E*
G04*
G04*
G04 #@! TF.FilePolarity,Positive*
G04*
G01*
G75*
%ADD10C,0.1270*%
%ADD16C,0.3048*%
%ADD17R,1.6000X1.6000*%
%ADD18C,1.6000*%
%ADD19R,1.6000X3.5000*%
%ADD20R,3.5000X1.6000*%
%ADD21R,1.6000X1.6000*%
%ADD22C,0.6000*%
D10*
X-0Y12700D02*
G03*
X12700Y0I12700J0D01*
G01*
Y330200D02*
G03*
X0Y317500I0J-12700D01*
G01*
X1422400Y-0D02*
G03*
X1435100Y12700I0J12700D01*
G01*
X1435100Y317500D02*
G03*
X1422400Y330200I-12700J0D01*
G01*
X0Y12700D02*
Y317500D01*
X12700Y330200D02*
X1422400D01*
X12700Y0D02*
X1422400D01*
X1435100Y12700D02*
Y317500D01*
D16*
X585342Y80390D02*
X610616Y105664D01*
X1307084D01*
X302640Y80390D02*
X585342D01*
X609092Y110998D02*
X1080516D01*
X1092800Y123282D01*
X582804Y84710D02*
X609092Y110998D01*
X302640Y84710D02*
X582804D01*
X292100Y95250D02*
X302640Y84710D01*
X292100Y69850D02*
X302640Y80390D01*
X1307084Y105664D02*
X1320800Y119380D01*
X1092800Y123282D02*
Y158200D01*
X1320800Y157600D02*
X1321400Y158200D01*
X1320800Y119380D02*
Y157600D01*
X190296Y120904D02*
X242062D01*
X163787Y147414D02*
X190296Y120904D01*
X153000Y153890D02*
X159476Y147414D01*
X153000Y153890D02*
Y158200D01*
X159476Y147414D02*
X163787D01*
X443738Y96012D02*
X444500Y95250D01*
X443738Y96012D02*
Y181356D01*
X418338Y96012D02*
X419100Y95250D01*
X418338Y96012D02*
Y188976D01*
X393700Y95250D02*
Y219456D01*
X367284Y96266D02*
X368300Y95250D01*
X367284Y96266D02*
Y228600D01*
X546100Y56642D02*
Y69850D01*
X146050Y19050D02*
X508508D01*
X546100Y56642D01*
X495300Y57912D02*
Y69850D01*
X153924Y27940D02*
X465328D01*
X495300Y57912D01*
X468630Y59436D02*
Y68580D01*
X441452Y32258D02*
X468630Y59436D01*
X158242Y32258D02*
X441452D01*
X468630Y68580D02*
X469900Y69850D01*
X442976Y68326D02*
X444500Y69850D01*
X442976Y59690D02*
Y68326D01*
X419608Y36322D02*
X442976Y59690D01*
X162814Y36322D02*
X419608D01*
X418474Y59064D02*
Y69223D01*
X168148Y40386D02*
X399796D01*
X418474Y69223D02*
X419100Y69850D01*
X399796Y40386D02*
X418474Y59064D01*
X368300Y55880D02*
Y69850D01*
X176784Y48768D02*
X361188D01*
X368300Y55880D01*
X135128Y90424D02*
X176784Y48768D01*
X108458Y73406D02*
X153924Y27940D01*
X493522Y23622D02*
X520700Y50800D01*
X109220Y63500D02*
X149098Y23622D01*
X493522D01*
X127000Y38100D02*
X146050Y19050D01*
X82550Y63500D02*
X109220D01*
X102870Y88900D02*
X108458Y83312D01*
Y73406D02*
Y83312D01*
X114046Y76454D02*
X158242Y32258D01*
X114046Y76454D02*
Y100584D01*
X102490Y112140D02*
X114046Y100584D01*
X119380Y79756D02*
Y117776D01*
X99616Y137540D02*
X119380Y117776D01*
Y79756D02*
X162814Y36322D01*
X124460Y84074D02*
X168148Y40386D01*
X99616Y162940D02*
X124460Y138096D01*
Y84074D02*
Y138096D01*
X107942Y188340D02*
X130048Y166234D01*
Y87376D02*
X172974Y44450D01*
X130048Y87376D02*
Y166234D01*
X107950Y215900D02*
X135128Y188722D01*
Y90424D02*
Y188722D01*
X82550Y88900D02*
X102870D01*
X84710Y112140D02*
X102490D01*
X172974Y44450D02*
X381000D01*
X82550Y38100D02*
X127000D01*
X82550Y215900D02*
X107950D01*
X69850Y228600D02*
X82550Y215900D01*
X84710Y188340D02*
X107942D01*
X69850Y203200D02*
X84710Y188340D01*
X69850Y177800D02*
X84710Y162940D01*
X99616D01*
X84710Y137540D02*
X99616D01*
X69850Y127000D02*
X84710Y112140D01*
X381000Y44450D02*
X393700Y57150D01*
Y69850D01*
X69850Y152400D02*
X84710Y137540D01*
X69850Y76200D02*
X82550Y63500D01*
X69850Y101600D02*
X82550Y88900D01*
X520700Y50800D02*
Y69850D01*
X69850Y50800D02*
X82550Y38100D01*
D17*
X190500Y95250D02*
D03*
X774700Y88900D02*
D03*
D18*
X215900Y95250D02*
D03*
X241300D02*
D03*
X266700D02*
D03*
X292100D02*
D03*
X317500D02*
D03*
X342900D02*
D03*
X368300D02*
D03*
X393700D02*
D03*
X419100D02*
D03*
X444500D02*
D03*
X469900D02*
D03*
X495300D02*
D03*
X520700D02*
D03*
X546100D02*
D03*
X190500Y69850D02*
D03*
X368300D02*
D03*
X393700D02*
D03*
X444500D02*
D03*
X469900D02*
D03*
X495300D02*
D03*
X520700D02*
D03*
X546100D02*
D03*
X215900D02*
D03*
X241300D02*
D03*
X266700D02*
D03*
X292100D02*
D03*
X317500D02*
D03*
X342900D02*
D03*
X419100D02*
D03*
X95250Y279400D02*
D03*
Y254000D02*
D03*
Y228600D02*
D03*
Y203200D02*
D03*
Y177800D02*
D03*
Y152400D02*
D03*
Y127000D02*
D03*
Y101600D02*
D03*
Y76200D02*
D03*
Y50800D02*
D03*
Y25400D02*
D03*
X69850Y304800D02*
D03*
Y127000D02*
D03*
Y101600D02*
D03*
Y50800D02*
D03*
Y25400D02*
D03*
Y279400D02*
D03*
Y254000D02*
D03*
Y228600D02*
D03*
Y203200D02*
D03*
Y177800D02*
D03*
Y152400D02*
D03*
Y76200D02*
D03*
X800100Y88900D02*
D03*
X825500D02*
D03*
X850900D02*
D03*
X876300D02*
D03*
X901700D02*
D03*
X774700Y63500D02*
D03*
X800100D02*
D03*
X825500D02*
D03*
X850900D02*
D03*
X876300D02*
D03*
X901700D02*
D03*
D19*
X153000Y158200D02*
D03*
X228000D02*
D03*
X456600D02*
D03*
X381600D02*
D03*
X610200D02*
D03*
X685200D02*
D03*
X913800D02*
D03*
X838800D02*
D03*
X1092800D02*
D03*
X1167800D02*
D03*
X1396400D02*
D03*
X1321400D02*
D03*
D20*
X190500Y203200D02*
D03*
X419100D02*
D03*
X647700D02*
D03*
X876300D02*
D03*
X1130300D02*
D03*
X1358900D02*
D03*
D21*
X95250Y304800D02*
D03*
D22*
X242062Y120904D02*
D03*
X443738Y181356D02*
D03*
X418338Y188976D02*
D03*
X393700Y219456D02*
D03*
X367284Y228600D02*
D03*
M02*
