G04*
G04 #@! TF.GenerationSoftware,Altium Limited,Altium Designer,21.7.2 (23)*
G04*
G04 Layer_Color=16711935*
%FSLAX44Y44*%
%MOMM*%
G71*
G04*
G04 #@! TF.SameCoordinates,8BDE5F45-7B48-4CA1-9D59-FC4D3A77770E*
G04*
G04*
G04 #@! TF.FilePolarity,Negative*
G04*
G01*
G75*
%ADD10C,0.1270*%
%ADD11R,1.8000X1.8000*%
%ADD12C,1.8000*%
%ADD13R,1.8000X3.7000*%
%ADD14R,3.7000X1.8000*%
%ADD15R,1.8000X1.8000*%
D10*
X-0Y12700D02*
G03*
X12700Y0I12700J0D01*
G01*
Y330200D02*
G03*
X0Y317500I0J-12700D01*
G01*
X1422400Y-0D02*
G03*
X1435100Y12700I0J12700D01*
G01*
X1435100Y317500D02*
G03*
X1422400Y330200I-12700J0D01*
G01*
X0Y12700D02*
Y317500D01*
X12700Y330200D02*
X1422400D01*
X12700Y0D02*
X1422400D01*
X1435100Y12700D02*
Y317500D01*
D11*
X190500Y95250D02*
D03*
X774700Y88900D02*
D03*
D12*
X215900Y95250D02*
D03*
X241300D02*
D03*
X266700D02*
D03*
X292100D02*
D03*
X317500D02*
D03*
X342900D02*
D03*
X368300D02*
D03*
X393700D02*
D03*
X419100D02*
D03*
X444500D02*
D03*
X469900D02*
D03*
X495300D02*
D03*
X520700D02*
D03*
X546100D02*
D03*
X190500Y69850D02*
D03*
X368300D02*
D03*
X393700D02*
D03*
X444500D02*
D03*
X469900D02*
D03*
X495300D02*
D03*
X520700D02*
D03*
X546100D02*
D03*
X215900D02*
D03*
X241300D02*
D03*
X266700D02*
D03*
X292100D02*
D03*
X317500D02*
D03*
X342900D02*
D03*
X419100D02*
D03*
X95250Y279400D02*
D03*
Y254000D02*
D03*
Y228600D02*
D03*
Y203200D02*
D03*
Y177800D02*
D03*
Y152400D02*
D03*
Y127000D02*
D03*
Y101600D02*
D03*
Y76200D02*
D03*
Y50800D02*
D03*
Y25400D02*
D03*
X69850Y304800D02*
D03*
Y127000D02*
D03*
Y101600D02*
D03*
Y50800D02*
D03*
Y25400D02*
D03*
Y279400D02*
D03*
Y254000D02*
D03*
Y228600D02*
D03*
Y203200D02*
D03*
Y177800D02*
D03*
Y152400D02*
D03*
Y76200D02*
D03*
X800100Y88900D02*
D03*
X825500D02*
D03*
X850900D02*
D03*
X876300D02*
D03*
X901700D02*
D03*
X774700Y63500D02*
D03*
X800100D02*
D03*
X825500D02*
D03*
X850900D02*
D03*
X876300D02*
D03*
X901700D02*
D03*
D13*
X153000Y158200D02*
D03*
X228000D02*
D03*
X456600D02*
D03*
X381600D02*
D03*
X610200D02*
D03*
X685200D02*
D03*
X913800D02*
D03*
X838800D02*
D03*
X1092800D02*
D03*
X1167800D02*
D03*
X1396400D02*
D03*
X1321400D02*
D03*
D14*
X190500Y203200D02*
D03*
X419100D02*
D03*
X647700D02*
D03*
X876300D02*
D03*
X1130300D02*
D03*
X1358900D02*
D03*
D15*
X95250Y304800D02*
D03*
M02*
