M48
;Layer_Color=9474304
;FILE_FORMAT=2:5
INCH,LZ
;TYPE=PLATED
T2F00S00C0.03937
;TYPE=NON_PLATED
T4F00S00C0.08661
%
G90
G05
T02
G00X0063976Y0061417
M15
G01Y0068504
M16
G00X0093504Y0068504
M15
G01Y0061417
M16
G00X0075197Y0082677
M15
G01X0082284
M16
G00X0161811Y0082677
M15
G01X0168898
M16
G00X0180118Y0068504
M15
G01Y0061417
M16
G00X0150591Y0061417
M15
G01Y0068504
M16
G00X0237205Y0061417
M15
G01Y0068504
M16
G00X0266732Y0068504
M15
G01Y0061417
M16
G00X0248425Y0082677
M15
G01X0255512
M16
G00X0335039Y0082677
M15
G01X0342126
M16
G00X0353346Y0068504
M15
G01Y0061417
M16
G00X0323819Y0061417
M15
G01Y0068504
M16
G00X0426181Y0061417
M15
G01Y0068504
M16
G00X0455709Y0068504
M15
G01Y0061417
M16
G00X0437402Y0082677
M15
G01X0444488
M16
G00X0512795Y0061417
M15
G01Y0068504
M16
G00X0524016Y0082677
M15
G01X0531102
M16
G00X0542323Y0068504
M15
G01Y0061417
M16
T04
G00X0062008Y009252
M15
G01Y009252
M16
G00X0095472Y009252
M15
G01Y009252
M16
G00X0148622Y009252
M15
G01Y009252
M16
G00X0182087Y009252
M15
G01Y009252
M16
G00X0235236Y009252
M15
G01Y009252
M16
G00X0268701Y009252
M15
G01Y009252
M16
G00X032185Y009252
M15
G01Y009252
M16
G00X0355315Y009252
M15
G01Y009252
M16
G00X0424213Y009252
M15
G01Y009252
M16
G00X0457677Y009252
M15
G01Y009252
M16
G00X0510827Y009252
M15
G01Y009252
M16
G00X0544291Y009252
M15
G01Y009252
M16
M17
M30
