M48
;Layer_Color=9474304
;FILE_FORMAT=2:5
INCH,LZ
;TYPE=PLATED
T2F00S00C0.03937
%
G90
G05
T02
G00X0060236Y005874
M15
G01Y0065827
M16
G00X0089764Y0065827
M15
G01Y005874
M16
G00X0071457Y008
M15
G01X0078543
M16
G00X0161457Y008
M15
G01X0168543
M16
G00X0179764Y0065827
M15
G01Y005874
M16
G00X0150236Y005874
M15
G01Y0065827
M16
G00X0240236Y005874
M15
G01Y0065827
M16
G00X0269764Y0065827
M15
G01Y005874
M16
G00X0251457Y008
M15
G01X0258543
M16
G00X0341457Y008
M15
G01X0348543
M16
G00X0359764Y0065827
M15
G01Y005874
M16
G00X0330236Y005874
M15
G01Y0065827
M16
G00X0430236Y005874
M15
G01Y0065827
M16
G00X0459764Y0065827
M15
G01Y005874
M16
G00X0441457Y008
M15
G01X0448543
M16
G00X0531457Y008
M15
G01X0538543
M16
G00X0549764Y0065827
M15
G01Y005874
M16
G00X0520236Y005874
M15
G01Y0065827
M16
M17
M30
