M48
;Layer_Color=9474304
;FILE_FORMAT=2:5
INCH,LZ
;TYPE=PLATED
T1F00S00C0.01181
T3F00S00C0.04331
;TYPE=NON_PLATED
%
T01
X00953Y00476
X0145Y00835
X0156Y0078
X0165Y0075
T03
X0215Y00275
X0305Y0025
X0315
X0325
X0335
X0345
X0355
X0205Y00275
X0195
X0185
X0175
X0165
X0155
X0145
X0135
X0125
X0115
X0105
X0095
X0085
X0075
X00375Y003
Y002
Y001
X00275
Y002
Y003
Y004
X00375
Y005
Y006
Y007
Y008
Y009
Y01
Y011
Y012
X00275
Y011
Y01
Y009
Y008
Y007
Y006
Y005
X0075Y00375
X0085
X0095
X0105
X0115
X0125
X0135
X0145
X0155
X0165
X0175
X0185
X0195
X0205
X0215
X0305Y0035
X0315
X0325
X0335
X0345
X0355
M30
